<svg id="visual" viewBox="0 0 960 540" width="960" height="540" xmlns="http://www.w3.org/2000/svg" xmlns:xlink="http://www.w3.org/1999/xlink" version="1.1"><path d="M882 540L883.7 527.2C885.3 514.3 888.7 488.7 893.5 463C898.3 437.3 904.7 411.7 904.7 386C904.7 360.3 898.3 334.7 898.3 308.8C898.3 283 904.7 257 907.8 231.2C911 205.3 911 179.7 911 154C911 128.3 911 102.7 907.8 77C904.7 51.3 898.3 25.7 895.2 12.8L892 0L960 0L960 12.8C960 25.7 960 51.3 960 77C960 102.7 960 128.3 960 154C960 179.7 960 205.3 960 231.2C960 257 960 283 960 308.8C960 334.7 960 360.3 960 386C960 411.7 960 437.3 960 463C960 488.7 960 514.3 960 527.2L960 540Z" fill="#2a4000"></path><path d="M661 540L664.3 527.2C667.7 514.3 674.3 488.7 692 463C709.7 437.3 738.3 411.7 735 386C731.7 360.3 696.3 334.7 702.7 308.8C709 283 757 257 757 231.2C757 205.3 709 179.7 685 154C661 128.3 661 102.7 677 77C693 51.3 725 25.7 741 12.8L757 0L893 0L896.2 12.8C899.3 25.7 905.7 51.3 908.8 77C912 102.7 912 128.3 912 154C912 179.7 912 205.3 908.8 231.2C905.7 257 899.3 283 899.3 308.8C899.3 334.7 905.7 360.3 905.7 386C905.7 411.7 899.3 437.3 894.5 463C889.7 488.7 886.3 514.3 884.7 527.2L883 540Z" fill="#314807"></path><path d="M623 540L626.2 527.2C629.3 514.3 635.7 488.7 653.3 463C671 437.3 700 411.7 696.8 386C693.7 360.3 658.3 334.7 663 308.8C667.7 283 712.3 257 712.3 231.2C712.3 205.3 667.7 179.7 643.7 154C619.7 128.3 616.3 102.7 630.7 77C645 51.3 677 25.7 693 12.8L709 0L758 0L742 12.8C726 25.7 694 51.3 678 77C662 102.7 662 128.3 686 154C710 179.7 758 205.3 758 231.2C758 257 710 283 703.7 308.8C697.3 334.7 732.7 360.3 736 386C739.3 411.7 710.7 437.3 693 463C675.3 488.7 668.7 514.3 665.3 527.2L662 540Z" fill="#394f0f"></path><path d="M469 540L477 527.2C485 514.3 501 488.7 520.3 463C539.7 437.3 562.3 411.7 564 386C565.7 360.3 546.3 334.7 554.3 308.8C562.3 283 597.7 257 597.7 231.2C597.7 205.3 562.3 179.7 546.3 154C530.3 128.3 533.7 102.7 551.3 77C569 51.3 601 25.7 617 12.8L633 0L710 0L694 12.8C678 25.7 646 51.3 631.7 77C617.3 102.7 620.7 128.3 644.7 154C668.7 179.7 713.3 205.3 713.3 231.2C713.3 257 668.7 283 664 308.8C659.3 334.7 694.7 360.3 697.8 386C701 411.7 672 437.3 654.3 463C636.7 488.7 630.3 514.3 627.2 527.2L624 540Z" fill="#415716"></path><path d="M431 540L439 527.2C447 514.3 463 488.7 477.3 463C491.7 437.3 504.3 411.7 506 386C507.7 360.3 498.3 334.7 508 308.8C517.7 283 546.3 257 541.5 231.2C536.7 205.3 498.3 179.7 485.5 154C472.7 128.3 485.3 102.7 506.2 77C527 51.3 556 25.7 570.5 12.8L585 0L634 0L618 12.8C602 25.7 570 51.3 552.3 77C534.7 102.7 531.3 128.3 547.3 154C563.3 179.7 598.7 205.3 598.7 231.2C598.7 257 563.3 283 555.3 308.8C547.3 334.7 566.7 360.3 565 386C563.3 411.7 540.7 437.3 521.3 463C502 488.7 486 514.3 478 527.2L470 540Z" fill="#495f1d"></path><path d="M373 540L381 527.2C389 514.3 405 488.7 421 463C437 437.3 453 411.7 449.8 386C446.7 360.3 424.3 334.7 427.7 308.8C431 283 460 257 456.8 231.2C453.7 205.3 418.3 179.7 407 154C395.7 128.3 408.3 102.7 429.2 77C450 51.3 479 25.7 493.5 12.8L508 0L586 0L571.5 12.8C557 25.7 528 51.3 507.2 77C486.3 102.7 473.7 128.3 486.5 154C499.3 179.7 537.7 205.3 542.5 231.2C547.3 257 518.7 283 509 308.8C499.3 334.7 508.7 360.3 507 386C505.3 411.7 492.7 437.3 478.3 463C464 488.7 448 514.3 440 527.2L432 540Z" fill="#516724"></path><path d="M335 540L343 527.2C351 514.3 367 488.7 383 463C399 437.3 415 411.7 413.3 386C411.7 360.3 392.3 334.7 395.5 308.8C398.7 283 424.3 257 421.2 231.2C418 205.3 386 179.7 374.8 154C363.7 128.3 373.3 102.7 392.5 77C411.7 51.3 440.3 25.7 454.7 12.8L469 0L509 0L494.5 12.8C480 25.7 451 51.3 430.2 77C409.3 102.7 396.7 128.3 408 154C419.3 179.7 454.7 205.3 457.8 231.2C461 257 432 283 428.7 308.8C425.3 334.7 447.7 360.3 450.8 386C454 411.7 438 437.3 422 463C406 488.7 390 514.3 382 527.2L374 540Z" fill="#596f2b"></path><path d="M258 540L261.2 527.2C264.3 514.3 270.7 488.7 288.3 463C306 437.3 335 411.7 341.5 386C348 360.3 332 334.7 332 308.8C332 283 348 257 340 231.2C332 205.3 300 179.7 284 154C268 128.3 268 102.7 284 77C300 51.3 332 25.7 348 12.8L364 0L470 0L455.7 12.8C441.3 25.7 412.7 51.3 393.5 77C374.3 102.7 364.7 128.3 375.8 154C387 179.7 419 205.3 422.2 231.2C425.3 257 399.7 283 396.5 308.8C393.3 334.7 412.7 360.3 414.3 386C416 411.7 400 437.3 384 463C368 488.7 352 514.3 344 527.2L336 540Z" fill="#627732"></path><path d="M124 540L125.5 527.2C127 514.3 130 488.7 131.5 463C133 437.3 133 411.7 133 386C133 360.3 133 334.7 136.3 308.8C139.7 283 146.3 257 141.7 231.2C137 205.3 121 179.7 114.5 154C108 128.3 111 102.7 114.2 77C117.3 51.3 120.7 25.7 122.3 12.8L124 0L365 0L349 12.8C333 25.7 301 51.3 285 77C269 102.7 269 128.3 285 154C301 179.7 333 205.3 341 231.2C349 257 333 283 333 308.8C333 334.7 349 360.3 342.5 386C336 411.7 307 437.3 289.3 463C271.7 488.7 265.3 514.3 262.2 527.2L259 540Z" fill="#6a8039"></path><path d="M76 540L76 527.2C76 514.3 76 488.7 77.5 463C79 437.3 82 411.7 83.5 386C85 360.3 85 334.7 86.7 308.8C88.3 283 91.7 257 88.5 231.2C85.3 205.3 75.7 179.7 72.5 154C69.3 128.3 72.7 102.7 74.3 77C76 51.3 76 25.7 76 12.8L76 0L125 0L123.3 12.8C121.7 25.7 118.3 51.3 115.2 77C112 102.7 109 128.3 115.5 154C122 179.7 138 205.3 142.7 231.2C147.3 257 140.7 283 137.3 308.8C134 334.7 134 360.3 134 386C134 411.7 134 437.3 132.5 463C131 488.7 128 514.3 126.5 527.2L125 540Z" fill="#738841"></path><path d="M28 540L31.2 527.2C34.3 514.3 40.7 488.7 43.8 463C47 437.3 47 411.7 45.3 386C43.7 360.3 40.3 334.7 42 308.8C43.7 283 50.3 257 48.8 231.2C47.3 205.3 37.7 179.7 34.3 154C31 128.3 34 102.7 37.2 77C40.3 51.3 43.7 25.7 45.3 12.8L47 0L77 0L77 12.8C77 25.7 77 51.3 75.3 77C73.7 102.7 70.3 128.3 73.5 154C76.7 179.7 86.3 205.3 89.5 231.2C92.7 257 89.3 283 87.7 308.8C86 334.7 86 360.3 84.5 386C83 411.7 80 437.3 78.5 463C77 488.7 77 514.3 77 527.2L77 540Z" fill="#7b9048"></path><path d="M0 540L0 527.2C0 514.3 0 488.7 0 463C0 437.3 0 411.7 0 386C0 360.3 0 334.7 0 308.8C0 283 0 257 0 231.2C0 205.3 0 179.7 0 154C0 128.3 0 102.7 0 77C0 51.3 0 25.7 0 12.8L0 0L48 0L46.3 12.8C44.7 25.7 41.3 51.3 38.2 77C35 102.7 32 128.3 35.3 154C38.7 179.7 48.3 205.3 49.8 231.2C51.3 257 44.7 283 43 308.8C41.3 334.7 44.7 360.3 46.3 386C48 411.7 48 437.3 44.8 463C41.7 488.7 35.3 514.3 32.2 527.2L29 540Z" fill="#84994f"></path></svg>